<svg xmlns="http://www.w3.org/2000/svg" aria-hidden="true" style="position:absolute;width:0;height:0;overflow:hidden">
  <defs>
    <symbol id="icon-diligence" viewBox="0 0 40 40">
      <path d="M1.999 35.364h31.983a1.999 1.999 0 0 0 1.999-1.999V30.7a1.999 1.999 0 0 0-1.999-1.999h-.666V12.084l3.785-3.585a2.011 2.011 0 1 0-.933-.953l-2.852 2.703V8.712a1.999 1.999 0 0 0-1.999-1.999H4.664a1.999 1.999 0 0 0-1.999 1.999v19.99h-.666A1.999 1.999 0 0 0 0 30.701v2.665c0 1.104.895 1.999 1.999 1.999zM37.98 6.046a.666.666 0 1 1 0 1.332.666.666 0 0 1 0-1.332zM3.998 8.711c0-.368.298-.666.666-.666h26.653c.368 0 .666.298.666.666v2.798l-1.333 1.266v-2.732a.666.666 0 0 0-.666-.666H5.997a.666.666 0 0 0-.666.666v16.658c0 .368.298.666.666.666h23.987a.666.666 0 0 0 .666-.666V14.608l1.333-1.263V28.7H3.998V8.71zm5.997 8.662a1.999 1.999 0 1 0 1.384 3.436l2.316 1.162a.665.665 0 0 0 .795-.153l4.924-5.539 4.84 3.627c.26.195.622.174.858-.049l4.206-3.985v10.164H6.663V10.711h22.655v3.325L24.604 18.5l-4.881-3.659a.667.667 0 0 0-.898.09l-4.991 5.616-1.866-.933c.014-.08.022-.161.025-.242a1.999 1.999 0 0 0-1.999-1.999zm.666 1.999a.666.666 0 1 1-1.332 0 .666.666 0 0 1 1.332 0zm3.998 10.661h6.663v.666a.666.666 0 0 1-.666.666h-5.331a.666.666 0 0 1-.666-.666v-.666zm-13.326.666c0-.368.298-.666.666-.666h11.327v.666c0 1.104.895 1.999 1.999 1.999h5.331a1.999 1.999 0 0 0 1.999-1.999v-.666h11.327c.368 0 .666.298.666.666v2.665a.666.666 0 0 1-.666.666H1.999a.666.666 0 0 1-.666-.666v-2.665z"/>
    </symbol>
    <symbol id="icon-facebook" viewBox="0 0 40 40">
      <path d="M26.662 6.642h3.652V.282C29.684.195 27.517 0 24.994 0c-5.265 0-8.872 3.312-8.872 9.398V15h-5.81v7.11h5.81V40h7.123V22.112h5.575l.885-7.11h-6.462v-4.898c.002-2.055.555-3.462 3.418-3.462z"/>
    </symbol>
    <symbol id="icon-instagram" viewBox="0 0 40 40">
      <path d="M39.961 11.76c-.094-2.125-.438-3.586-.93-4.853a9.755 9.755 0 0 0-2.313-3.547 9.835 9.835 0 0 0-3.54-2.305c-1.274-.492-2.727-.836-4.853-.93C26.184.023 25.504 0 20.073 0s-6.111.024-8.244.117c-2.125.094-3.587.438-4.852.93A9.759 9.759 0 0 0 3.429 3.36 9.835 9.835 0 0 0 1.124 6.9C.632 8.174.288 9.627.194 11.752c-.102 2.141-.125 2.821-.125 8.252s.024 6.111.117 8.244c.094 2.126.438 3.586.93 4.853a9.859 9.859 0 0 0 2.313 3.547 9.835 9.835 0 0 0 3.54 2.305c1.274.492 2.727.836 4.853.93 2.133.094 2.813.117 8.244.117s6.111-.023 8.244-.117c2.125-.094 3.586-.438 4.852-.93a10.232 10.232 0 0 0 5.853-5.852c.492-1.274.836-2.727.93-4.853.094-2.133.117-2.813.117-8.244s-.008-6.111-.102-8.244zm-3.602 16.331c-.086 1.954-.414 3.009-.688 3.712a6.636 6.636 0 0 1-3.798 3.798c-.703.274-1.766.601-3.712.687-2.11.094-2.742.117-8.079.117s-5.978-.023-8.08-.117c-1.954-.086-3.008-.414-3.712-.687a6.168 6.168 0 0 1-2.297-1.493A6.232 6.232 0 0 1 4.5 31.811c-.274-.703-.602-1.766-.687-3.711-.094-2.11-.117-2.743-.117-8.08s.023-5.978.117-8.08c.086-1.954.414-3.008.687-3.712A6.09 6.09 0 0 1 6.001 5.93a6.21 6.21 0 0 1 2.297-1.492c.703-.274 1.766-.602 3.712-.688 2.11-.094 2.743-.117 8.08-.117 5.345 0 5.978.024 8.08.117 1.954.086 3.009.414 3.712.688.867.32 1.656.828 2.297 1.492a6.213 6.213 0 0 1 1.492 2.298c.274.703.601 1.766.688 3.712.094 2.11.117 2.743.117 8.08s-.024 5.962-.117 8.072z"/>
      <path d="M20.074 9.728c-5.673 0-10.275 4.602-10.275 10.275s4.603 10.276 10.275 10.276c5.673 0 10.275-4.602 10.275-10.276S25.747 9.728 20.074 9.728zm0 16.941c-3.68 0-6.665-2.985-6.665-6.665s2.985-6.665 6.665-6.665a6.666 6.666 0 0 1 0 13.33zM33.155 9.322a2.399 2.399 0 1 1-4.798 0 2.399 2.399 0 0 1 4.798 0z"/>
    </symbol>
    <symbol id="icon-linkedin" viewBox="0 0 40 40">
      <path d="M39.99 40v-.002H40v-14.67c0-7.177-1.545-12.705-9.935-12.705-4.033 0-6.74 2.213-7.845 4.312h-.117v-3.642h-7.955v26.705h8.283V26.775c0-3.482.66-6.848 4.972-6.848 4.249 0 4.312 3.973 4.312 7.072v13.002h8.275zM.66 13.295h8.293V40H.66V13.295zM4.803 0C2.151 0 0 2.152 0 4.803s2.152 4.848 4.803 4.848c2.652 0 4.803-2.197 4.803-4.848A4.806 4.806 0 0 0 4.803 0z"/>
    </symbol>
    <symbol id="icon-punctuality" viewBox="0 0 39 40">
      <path d="M38.496 19.127C38.494 8.562 29.927-.002 19.361 0S.232 8.569.234 19.135a19.131 19.131 0 0 0 13.312 18.22.773.773 0 0 0 .234.036.847.847 0 0 0 .428-.117.797.797 0 0 0 .354-.446l4.831-15.313a2.391 2.391 0 1 0-1.05-4.544l-6.382-6.383a.797.797 0 0 0-1.127 1.127l6.379 6.386a2.344 2.344 0 0 0 .671 2.886l-4.603 14.591C4.184 32.227-.475 22.136 2.877 13.038S16.319-.718 25.417 2.634c9.097 3.351 13.756 13.443 10.404 22.54a17.552 17.552 0 0 1-9.328 9.967l-.497-2.343a.797.797 0 0 0-1.311-.43l-4.796 4.282a.797.797 0 0 0 .289 1.356l6.123 1.954a.796.796 0 0 0 1.023-.925l-.489-2.299a19.07 19.07 0 0 0 11.661-17.611zm-19.131-.798a.797.797 0 1 1 0 1.594.797.797 0 0 1 0-1.594zm2.626 18.58 2.73-2.435.754 3.55-3.484-1.115z"/>
    </symbol>
    <symbol id="icon-strateg" viewBox="0 0 38 40">
      <path d="M37.216 27.622 26.662 16.991l1.171-5.769c.302.118.624.18.948.182h.008a2.698 2.698 0 1 0 .063-5.397 2.698 2.698 0 0 0-2.574 3.603l-6.2.757L9.965.201a.662.662 0 0 0-.471-.2.67.67 0 0 0-.467.194l-1.891 1.88a.668.668 0 0 0 0 .943L8.153 4.05a18.68 18.68 0 0 0 3.149 22.079.63.63 0 0 0 .183.122 3.828 3.828 0 0 0-.065.684v7.733h-8a3.337 3.337 0 0 0-3.333 3.333v1.333c0 .368.299.667.667.667h30.667a.667.667 0 0 0 .667-.667v-1.333a3.337 3.337 0 0 0-3.333-3.333h-8v-3.427c1.253.263 2.53.397 3.811.4a18.558 18.558 0 0 0 8.8-2.229l1.023 1.029a.662.662 0 0 0 .471.2.67.67 0 0 0 .467-.194l1.891-1.88a.668.668 0 0 0 0-.943zM27.85 7.791a1.334 1.334 0 1 1 .94 2.279h-.004a1.333 1.333 0 0 1-.933-2.278h-.003zm-1.57 4.381-.748 3.682-1.469-1.478 2.217-2.204zm-.757-1.127-2.4 2.386-1.857-1.867 4.257-.519zM28.755 36a2 2 0 0 1 2 2v.667H1.422V38a2 2 0 0 1 2-2h25.333zm-9.333-2.667v1.333h-6.667v-1.333h6.667zM12.755 32v-5.067c0-1.617 1.495-2.933 3.333-2.933s3.333 1.316 3.333 2.933V32h-6.667zm8-2.12v-2.947c0-2.353-2.093-4.267-4.667-4.267a4.746 4.746 0 0 0-4.101 2.233A17.337 17.337 0 0 1 9.139 5.04l23.252 23.386a17.278 17.278 0 0 1-11.636 1.454zm14.111-.855L8.545 2.549l.943-.94 9.919 9.975c.005 0 .007.009.012.012l16.393 16.489-.946.94z"/>
      <path d="M16.094 25.333h-.006a2 2 0 1 0-.006 4h.006a2 2 0 1 0 .006-4zm.467 2.473a.666.666 0 1 1-.473-1.139.667.667 0 0 1 .467 1.139h.006z"/>
    </symbol>
    <symbol id="icon-technologies" viewBox="0 0 40 40">
      <path d="M36.793 17.066a2.493 2.493 0 0 0-1.668-.989 2.494 2.494 0 0 0-1.88.494l-1.758 1.347-2.663 1.989-1.906-.759c3.398-1.525 5.774-4.924 5.774-8.87 0-5.366-4.383-9.731-9.77-9.731s-9.77 4.366-9.77 9.731a9.64 9.64 0 0 0 1.572 5.275l-3.879-.034h-.007c-.012 0-.022.006-.033.007a.747.747 0 0 0-.218.043c-.018.007-.037.011-.054.019-.009.004-.018.004-.027.009l-4.538 2.24-.001.001-2.657 1.278a.646.646 0 0 0-.088.049 2.5 2.5 0 0 0 .642 4.47 2.495 2.495 0 0 0 1.935-.18l1.948-1.036 3.178-1.641 1.904-.011-7.637 7.601-.002.001-1.879 1.871c-.444.442-.688 1.028-.688 1.653s.244 1.212.688 1.654c.456.454 1.055.681 1.655.681s1.199-.227 1.657-.681l1.844-1.837 2.443-1.824 1.264 1.259-2.473 2.462-.002.002L7.82 35.48c-.444.442-.688 1.028-.688 1.653s.244 1.212.688 1.654c.456.454 1.056.681 1.656.681s1.2-.228 1.656-.681l4.887-4.865.001-.002 1.417-1.404-.005-.005c.009-.009.022-.012.031-.022l7.25-7.941 4.872.693c.035.005.07.008.106.008a.744.744 0 0 0 .263-.054c.025-.009.046-.021.07-.033.027-.013.055-.021.081-.038l4.51-2.994c.016-.011.025-.029.041-.041.018-.014.041-.02.057-.036l1.784-1.672a2.496 2.496 0 0 0 .297-3.315zM5.095 22.134c-.243.13-.519.156-.784.073a1.002 1.002 0 0 1-.298-1.768l1.844-.887.63 1.842-1.392.74zm4.909-2.566-2.173 1.123-.616-1.801 2.845-1.404-.056 2.083zm21.192-9.292a8.133 8.133 0 0 1-.841 3.592l-5.869-2.666a2.611 2.611 0 0 0-1.106-1.948l2.055-6.821c3.337 1.062 5.761 4.175 5.761 7.843zm-16.546 0c0-4.54 3.711-8.234 8.273-8.234.355 0 .702.03 1.046.073l-2.01 6.672c-.027-.001-.052-.008-.08-.008-1.449 0-2.628 1.175-2.628 2.62s1.179 2.62 2.628 2.62a2.62 2.62 0 0 0 2.271-1.326l5.421 2.463a8.268 8.268 0 0 1-6.648 3.354c-4.562 0-8.273-3.694-8.273-8.234zm8.36 1.123c0 .619-.508 1.123-1.131 1.123s-1.131-.504-1.131-1.123.508-1.123 1.131-1.123 1.131.504 1.131 1.123zM5.565 32.486a.853.853 0 0 1-1.199.001.835.835 0 0 1 0-1.185l1.35-1.345 1.195 1.189-1.346 1.34zm4.51 5.24a.854.854 0 0 1-1.2.001.835.835 0 0 1 0-1.185l1.351-1.346 1.196 1.189-1.347 1.341zm4.887-4.869-.002.001-2.477 2.47-1.196-1.189 2.475-2.463v-.001l.002-.001c.056-.056.091-.124.126-.19.01-.019.028-.036.037-.056.023-.058.027-.12.036-.181.004-.034.019-.067.019-.102 0-.05-.018-.099-.028-.148-.009-.045-.009-.091-.026-.134a.728.728 0 0 0-.128-.193c-.014-.016-.019-.037-.035-.053h-.001l-.001-.003-2.255-2.246c-.024-.024-.055-.034-.082-.054a.738.738 0 0 0-.122-.081.704.704 0 0 0-.131-.046.705.705 0 0 0-.144-.028.67.67 0 0 0-.134.007.818.818 0 0 0-.146.028.665.665 0 0 0-.132.063c-.028.016-.059.021-.085.04l-2.489 1.858-1.264-1.259 3.367-3.349 6.12 6.019-1.302 1.29zm9.57-9.848c-.022-.003-.042.005-.064.004a.735.735 0 0 0-.162.01.682.682 0 0 0-.26.096.69.69 0 0 0-.117.086c-.018.016-.04.023-.056.041l-6.594 7.222-6.074-5.974 3.976-3.955a.749.749 0 0 0-.533-1.278v-.001l-3.114.019.039-2.256 4.357.037a9.754 9.754 0 0 0 6.991 2.949c.614 0 1.213-.064 1.796-.172.056.045.112.091.182.119l3.382 1.347.214 1.064.25 1.243-4.214-.6zm5.672.25-.439-2.187 2.03-1.516 1.329 1.764-2.919 1.939zm5.268-3.973-1.176 1.102-1.307-1.735 1.167-.894c.218-.168.493-.236.762-.201.271.038.511.18.674.399.304.409.252.981-.12 1.329z"/>
    </symbol>
    <symbol id="icon-twitter" viewBox="0 0 40 40">
      <path d="M40 7.597a17.08 17.08 0 0 1-4.725 1.295 8.156 8.156 0 0 0 3.608-4.532 16.4 16.4 0 0 1-5.2 1.985 8.216 8.216 0 0 0-5.99-2.595c-4.54 0-8.195 3.685-8.195 8.203 0 .65.055 1.275.19 1.87-6.817-.332-12.85-3.6-16.902-8.578A8.264 8.264 0 0 0 1.663 9.39a8.211 8.211 0 0 0 3.642 6.815c-1.317-.025-2.61-.408-3.705-1.01v.09c0 3.985 2.842 7.295 6.57 8.058a8.203 8.203 0 0 1-2.15.27c-.525 0-1.055-.03-1.553-.14 1.062 3.247 4.078 5.635 7.662 5.712a16.474 16.474 0 0 1-10.168 3.498c-.673 0-1.318-.03-1.963-.112 3.633 2.343 7.938 3.68 12.58 3.68 15.09 0 23.34-12.5 23.34-23.335 0-.362-.013-.713-.03-1.06 1.627-1.155 2.995-2.598 4.11-4.258z"/>
    </symbol>
    <symbol id="icon-icon-send" viewBox="0 0 48 40">
  <path d="M48 0l-48 22.5 15.34 4.734 23.66-18.484-17.997 20.233 0.015 0.005-0.018-0.005v11.017l8.603-8.363 10.898 3.363 7.5-35z"></path>
  </symbol>
    <symbol id="icon-icon-mail" viewBox="0 0 53 40">
  <path d="M46.667 0h-40c-2.75 0-4.975 2.25-4.975 5l-0.025 30c0 2.75 2.25 5 5 5h40c2.75 0 5-2.25 5-5v-30c0-2.75-2.25-5-5-5zM45.667 10.625l-17.675 11.050c-0.8 0.5-1.85 0.5-2.65 0l-17.675-11.050c-0.625-0.4-1-1.075-1-1.8 0-1.675 1.825-2.675 3.25-1.8l16.75 10.475 16.75-10.475c1.425-0.875 3.25 0.125 3.25 1.8 0 0.725-0.375 1.4-1 1.8z"></path>
  </symbol>
    <symbol id="icon-icon-name" viewBox="0 0 40 40">
  <path d="M20 20c5.525 0 10-4.475 10-10s-4.475-10-10-10c-5.525 0-10 4.475-10 10s4.475 10 10 10zM20 25c-6.675 0-20 3.35-20 10v2.5c0 1.375 1.125 2.5 2.5 2.5h35c1.375 0 2.5-1.125 2.5-2.5v-2.5c0-6.65-13.325-10-20-10z"></path>
    </symbol>
    <symbol id="icon-icon-phone" viewBox="0 0 40 40">
  <path d="M36.081 27.277l-5.656-0.646c-1.358-0.156-2.694 0.312-3.652 1.269l-4.097 4.097c-6.302-3.206-11.468-8.35-14.674-14.674l4.119-4.119c0.957-0.957 1.425-2.294 1.269-3.652l-0.646-5.611c-0.267-2.249-2.16-3.941-4.431-3.941h-3.852c-2.516 0-4.609 2.093-4.453 4.609 1.18 19.016 16.389 34.202 35.382 35.382 2.516 0.156 4.609-1.937 4.609-4.453v-3.852c0.022-2.249-1.67-4.142-3.919-4.409z"></path>
  </symbol>
  <symbol id="icon-close-blackX" viewBox="0 0 40 40">
<path d="M40 4.029l-4.029-4.029-15.971 15.971-15.971-15.971-4.029 4.029 15.971 15.971-15.971 15.971 4.029 4.029 15.971-15.971 15.971 15.971 4.029-4.029-15.971-15.971 15.971-15.971z"></path>
  </symbol>
  <symbol id="icon-galochka" viewBox="0 0 50 40">
<path d="M42.228 1.275c0.864-0.827 2.014-1.284 3.207-1.275s2.336 0.484 3.187 1.324c0.851 0.84 1.345 1.98 1.377 3.179s-0.401 2.363-1.208 3.247l-24.473 30.772c-0.421 0.456-0.929 0.821-1.493 1.075s-1.174 0.391-1.793 0.402c-0.618 0.011-1.233-0.102-1.806-0.335s-1.095-0.579-1.532-1.019l-16.229-16.317c-0.452-0.423-0.814-0.934-1.066-1.501s-0.387-1.18-0.398-1.801 0.103-1.238 0.334-1.814c0.231-0.576 0.576-1.099 1.013-1.538s0.957-0.785 1.53-1.018 1.186-0.347 1.804-0.336c0.618 0.011 1.227 0.147 1.791 0.4s1.072 0.617 1.493 1.072l12.844 12.907 21.302-27.287c0.038-0.047 0.079-0.093 0.123-0.136h-0.006z"></path>
  </symbol>
</defs>
</svg>

  </defs>
  </svg>
    </defs>
  </svg>